<svg width="197" height="196" viewBox="0 0 197 196" fill="none" xmlns="http://www.w3.org/2000/svg">
<path d="M101.561 175.887C100.701 174.779 99.8408 175.444 99.8408 174.779C94.6801 176.109 85.0039 172.562 80.9184 173.006C81.7785 171.676 79.6282 171.897 79.6282 171.011C78.7681 172.341 77.908 171.011 76.6178 171.454C75.3276 168.129 70.167 170.567 69.5219 166.356C66.5115 166.356 65.4364 164.583 62.426 162.809C62.641 162.588 62.856 162.588 63.0711 162.366C61.5659 162.144 61.5659 161.258 60.2757 161.258L60.7058 160.371C58.3405 159.928 57.4804 156.159 54.0399 154.829C52.9648 154.608 50.5995 150.839 49.3093 149.953C48.6642 149.509 47.5891 149.509 49.0943 149.288C48.8793 149.066 48.8793 148.623 49.0943 148.401C47.5891 147.958 47.3741 146.628 45.4388 145.963C45.2238 145.298 45.8689 144.855 45.4388 144.411C45.0088 144.19 44.3637 144.633 43.9336 144.411C43.7186 148.401 48.0192 148.844 49.3093 152.169C48.8793 151.726 48.2342 150.396 47.8041 151.283C47.5891 151.948 49.5244 154.386 49.5244 153.056C48.8793 153.499 48.6642 152.391 49.0943 152.169C49.7394 153.278 51.0295 153.056 51.0295 153.943C50.3845 154.608 49.5244 153.278 49.7394 154.386C51.6746 155.494 51.4596 156.603 52.5347 158.154C51.6746 157.046 51.4596 159.041 50.5995 158.154C50.3845 154.829 46.729 155.494 46.729 152.169C46.2989 151.061 45.8689 151.948 45.2238 151.504C46.0839 150.618 42.6435 147.514 42.6435 148.623C41.5683 147.293 42.2134 146.849 41.9984 145.963C41.1383 145.741 41.7834 146.849 41.1383 146.184C41.9984 144.633 40.0631 142.638 38.773 141.086L39.6331 140.643C38.1279 139.756 37.9129 137.983 36.8377 135.988C35.5476 137.983 39.4181 142.416 38.773 143.303C38.773 143.525 40.2782 145.298 40.7082 146.184C42.4285 149.288 43.7186 153.056 46.0839 154.829C45.6539 154.608 45.8689 153.278 46.514 153.943C46.514 154.608 46.0839 155.273 46.0839 155.938C47.3741 157.268 48.4492 158.376 49.7394 159.706C46.944 157.933 44.1487 156.159 42.2134 153.499C43.2886 153.278 44.3637 155.273 45.2238 155.051C43.0735 153.278 43.7186 152.613 42.8585 150.396C41.9984 149.731 43.0735 151.283 42.2134 151.504C39.4181 148.844 37.2678 147.293 35.9776 144.854C36.1927 144.633 36.4077 144.411 36.4077 143.968C36.1927 143.746 36.1927 143.746 35.9776 143.525C37.2678 144.854 37.6978 145.963 39.203 146.184C38.558 145.52 39.203 145.298 38.3429 144.633C37.9129 143.746 37.2678 145.076 36.8377 144.411C37.2678 143.746 36.8377 142.86 36.8377 142.195C36.4077 142.195 35.9776 142.195 35.7626 141.53C35.3325 141.308 35.1175 141.53 34.9025 141.973C34.6875 141.751 34.6875 141.308 34.4724 141.086V140.865C34.2574 140.643 34.0424 140.2 33.8274 139.978C32.1071 135.323 31.032 129.116 28.6667 125.126C29.3118 122.466 28.2366 117.147 27.5916 115.817C28.2366 114.708 27.8066 109.61 27.3765 108.723C26.3014 109.167 27.5916 111.605 26.5164 112.27C25.4413 107.393 27.1615 101.852 26.7315 97.4185C27.1615 97.4185 27.5916 97.4185 27.5916 97.1968C26.9465 96.5318 28.0216 95.2018 27.8066 93.6502C28.6667 91.6552 25.8713 96.5318 25.8713 98.5268C25.6563 98.9701 24.7962 98.5268 25.0112 99.6351C25.0112 101.187 25.4413 104.29 24.5812 106.507C24.1511 106.507 24.1511 106.063 23.7211 106.285C23.506 107.393 23.291 108.723 23.076 109.832C22.861 109.388 22.6459 108.723 22.6459 108.502C21.5708 102.96 22.6459 96.5318 22.2159 91.8769C23.076 91.8769 23.076 90.5469 23.7211 90.1036C23.506 91.8769 23.076 94.0935 24.1511 94.5368C25.0112 85.892 26.7315 76.3604 30.6019 67.0506C33.3973 60.179 37.4828 53.3074 42.4285 47.7658C42.8585 48.4308 42.2134 49.9825 42.4285 50.6475C46.729 45.9925 49.5244 40.4509 54.255 37.3476C54.47 38.456 52.3197 39.3426 52.3197 40.2293C54.255 38.2343 54.9 38.8993 57.0503 38.2343C57.6954 37.3476 56.1902 38.2343 55.9752 37.3476C57.2653 36.461 58.1255 35.3527 58.9856 34.6877C58.9856 34.9093 58.7705 34.9093 58.7705 35.131C61.1358 34.466 61.3509 33.136 63.0711 32.6927C62.856 32.471 62.426 32.2494 61.7809 32.471C62.211 32.2494 62.856 31.806 63.5011 31.5844C63.2861 31.5844 63.2861 31.806 63.0711 31.806C64.3612 31.1411 63.2861 32.0277 63.2861 32.471C63.5011 32.471 63.7162 32.2494 63.7162 32.2494C62.426 33.136 61.5659 33.5794 61.1358 35.131C61.7809 34.6877 61.9959 35.131 62.8561 34.466C63.7162 34.0227 62.641 33.3577 63.2861 32.9144C63.9312 33.3577 64.7913 33.136 65.4364 33.136C65.4364 32.6927 65.6514 32.2494 66.0815 32.0277C66.2965 31.5844 66.0815 31.3627 65.8664 31.3627C66.0815 31.141 66.2965 31.1411 66.7265 30.9194C66.7265 30.9194 66.9416 30.9194 66.9416 31.141C70.597 29.3677 74.6826 27.8161 78.5531 26.4861C80.9184 26.2644 83.9287 26.2645 85.2189 24.7128C84.7889 24.7128 84.3588 24.9345 84.1438 24.7128C84.3588 24.7128 84.7888 24.4911 85.0039 24.4911C85.4339 24.9345 86.079 24.4911 85.4339 25.3778C85.649 25.3778 85.649 25.3778 85.864 25.1561C85.864 25.3778 85.864 25.3778 86.079 25.5995C86.294 25.5995 86.5091 25.3778 86.7241 24.9345C86.9391 24.9345 87.1542 24.9345 87.3692 24.7128L87.1541 24.9345C88.8744 24.4911 90.3796 24.7128 92.7449 24.2695C92.7449 24.0478 92.7449 23.8261 92.7449 23.6045C93.1749 23.6045 93.3899 23.3828 93.82 23.3828V23.6045C94.6801 23.1612 95.5402 24.0478 95.5402 23.6045C95.7552 23.6045 95.7553 23.6045 95.9703 23.6045C95.9703 24.0478 95.7552 24.2695 95.7552 24.4911C96.8304 24.4911 97.4755 24.4911 97.9055 23.8262C97.6905 23.6045 97.4755 23.6045 97.2604 23.6045C97.6905 23.6045 98.1205 23.3828 98.5506 23.1612C99.1957 23.3828 99.4107 23.6045 99.4107 24.4911C100.486 22.4962 103.926 24.9345 105.431 24.4911C106.077 24.4911 105.862 23.6045 106.292 23.1612C106.507 23.1612 106.722 23.1612 106.937 23.1612C108.012 24.0478 109.517 24.9345 111.452 25.1561C109.732 24.7128 111.667 24.4911 111.882 24.2695C111.452 24.2695 111.452 24.0478 111.452 23.8262C112.097 23.8262 112.742 24.0478 113.387 24.0478C113.387 24.4911 113.603 24.7128 114.033 24.7128C114.463 24.7128 114.463 24.4911 114.463 24.0478C115.108 24.0478 115.538 24.0478 116.183 24.2695C115.968 25.1561 117.258 25.3778 117.688 26.0428C115.968 25.5995 114.033 24.9345 113.387 26.0428C120.268 27.5944 127.794 29.8111 135.105 33.5794C135.105 33.5794 135.105 33.5793 135.105 33.801H135.32C136.61 34.466 137.901 35.131 139.191 35.796C140.051 36.2393 140.696 36.6826 141.556 37.3476C141.556 37.5693 141.556 37.791 141.986 37.791H142.201C143.061 38.456 143.921 38.8993 144.781 39.5643C145.642 40.8943 146.502 42.6676 148.007 42.2242C151.232 47.3225 154.673 49.3175 157.468 54.6374C157.683 53.7507 158.328 56.6324 159.403 56.854C157.683 56.6324 160.478 57.9624 158.758 57.7407C160.263 59.2923 160.694 59.9573 160.909 61.7306C160.478 60.844 160.263 60.6223 160.048 61.509C159.833 62.8389 161.554 61.2873 162.199 62.6173C160.909 62.6173 161.339 63.5039 161.554 64.6123C162.199 63.9473 161.984 63.2823 162.629 63.5039C163.489 64.3906 162.199 64.6123 162.414 65.2772C163.059 64.3906 163.274 64.8339 164.134 65.2772C163.059 65.4989 164.779 67.0506 163.489 66.3856C164.349 67.4939 164.564 68.1589 164.134 69.2672C163.274 67.9372 163.919 67.0506 162.629 67.2722C165.209 69.4889 163.919 74.5871 166.929 75.0304C164.994 75.4738 166.929 76.3604 165.854 76.5821C167.144 77.0254 166.499 78.7987 168.004 79.2421C167.789 80.3504 167.359 81.0154 167.144 82.1237C167.789 83.0103 168.004 84.7836 169.08 85.0053C168.435 85.6703 168.865 87.4436 168.219 88.1086C169.08 87.6653 169.51 87.6653 170.155 88.5519C169.08 89.4386 169.94 90.3252 169.295 90.5469C171.23 95.6452 168.865 106.063 169.94 110.053C168.65 109.388 169.08 111.605 168.219 111.605C169.725 112.27 168.435 113.378 169.08 114.487C166.069 116.26 169.08 121.136 164.994 122.245C165.424 125.348 163.704 126.678 162.414 130.003C162.199 129.781 162.199 129.56 161.984 129.338C161.769 130.89 160.909 131.111 161.339 132.441L160.478 131.998C160.478 134.436 156.823 135.766 155.963 139.535C155.748 140.643 152.522 143.525 151.662 145.076C151.232 145.741 151.447 146.849 151.017 145.298C150.802 145.519 150.372 145.519 150.157 145.519C149.942 147.071 148.652 147.514 148.222 149.509C147.792 149.731 147.147 149.066 146.717 149.731C146.717 150.174 147.147 150.839 146.932 151.283C150.802 151.061 150.802 146.406 153.813 144.854C153.598 145.519 152.307 146.184 153.168 146.628C153.813 146.628 155.748 144.411 154.673 144.633C155.318 145.076 154.028 145.519 153.813 145.298C154.888 144.411 154.458 143.303 155.318 143.081C155.963 143.525 154.673 144.633 155.963 144.411C156.823 142.416 157.898 142.195 159.188 141.086C158.328 141.973 160.263 142.195 159.403 143.081C156.178 143.746 157.253 147.514 154.028 147.958C153.168 148.623 153.813 148.844 153.598 149.509C152.522 148.844 150.157 152.613 151.017 152.391C149.942 153.499 149.297 153.056 148.437 153.278C148.222 154.164 149.297 153.499 148.867 154.164C147.362 153.499 145.427 155.716 144.136 157.268L143.491 156.603C142.846 158.376 141.126 158.598 139.191 159.928C141.341 161.036 144.997 156.381 146.072 157.046C146.287 157.046 148.007 155.273 148.652 154.608C151.447 152.391 154.888 150.618 156.178 148.179C155.963 148.623 154.673 148.623 155.318 147.958C155.963 147.736 156.608 148.179 157.253 148.179C160.694 143.303 164.994 139.313 168.219 133.55C168.435 133.328 168.65 132.885 168.865 132.441C168.435 133.771 167.789 134.88 167.359 136.21C163.919 138.648 162.629 145.741 158.543 146.849C158.758 149.288 156.608 149.953 155.533 152.834C154.888 153.721 154.458 152.169 153.813 153.278C154.458 156.381 148.437 156.159 148.652 159.041C148.222 159.263 147.577 159.484 147.147 159.928H146.932C146.717 160.149 146.717 160.149 146.502 160.371C145.427 161.036 144.566 161.701 143.706 162.366C140.696 164.139 136.61 165.469 133.385 167.243V167.021C132.525 167.464 131.45 167.243 131.665 168.129C131.02 168.572 130.375 169.016 129.73 169.459C129.515 169.459 129.515 169.459 129.3 169.459C129.3 169.459 129.084 169.237 128.869 169.237C128.439 169.237 128.439 169.238 128.224 169.459C125.429 169.681 121.774 171.011 120.698 171.897C119.623 171.232 114.678 172.341 113.818 172.784C114.248 173.449 115.538 172.784 116.613 172.784C115.968 173.006 115.323 173.227 115.108 173.671C114.893 173.671 114.893 173.671 114.678 173.671C114.463 173.006 113.818 173.671 113.603 173.449H113.818C113.603 172.562 112.957 172.119 111.882 172.341C111.882 172.784 111.882 173.006 111.667 173.449C112.097 173.449 113.387 172.784 113.387 173.449C113.172 173.449 113.172 173.671 113.387 173.671C112.957 174.114 112.312 174.114 111.882 174.336C111.022 174.336 109.947 174.336 109.087 174.336C108.872 174.114 108.657 174.114 108.227 173.892C108.012 174.114 107.582 174.114 107.367 174.336C106.077 174.336 104.571 174.557 103.496 174.779C103.496 174.336 103.496 173.892 103.066 173.892C102.421 174.779 101.131 173.671 99.6257 174.114C98.1205 173.671 100.486 174.779 102.636 175.222C102.421 175.444 102.206 175.666 101.561 175.887ZM71.4571 178.991C68.4468 176.109 62.211 174.779 61.1358 172.562C59.4156 172.341 56.8353 169.016 54.685 168.573C55.7602 168.573 54.9 167.908 54.685 167.464C54.255 167.908 53.8249 168.129 53.3948 168.129C53.3948 166.356 51.6746 165.248 50.1694 164.139C51.2446 164.804 52.1047 165.248 53.3948 165.469C53.3948 165.026 53.3948 164.583 53.8249 164.583C55.3301 166.134 57.0503 167.686 58.9856 169.237C61.5659 171.676 74.8976 177.882 77.2629 178.991C77.2629 178.991 76.8328 179.877 77.0479 179.877C78.123 180.542 78.9831 179.212 79.1981 180.764C75.7577 181.207 74.4675 178.769 71.4571 178.991ZM170.585 127.565V127.786C170.37 127.786 170.585 127.565 170.585 127.565ZM83.7137 24.9345C83.4987 25.1561 83.2837 25.1561 83.2837 25.1561C83.2837 24.9345 83.4987 24.9345 83.7137 24.9345ZM65.4364 30.6977C65.6514 30.4761 65.6514 30.4761 65.8664 30.4761C65.6514 30.4761 65.4364 30.6977 65.4364 30.6977ZM99.8408 23.3828C99.4107 23.3828 99.1957 23.3828 98.9807 23.1612C99.1957 23.1612 99.4107 23.1612 99.6257 23.1612H99.8408C99.8408 23.1612 99.8408 23.1612 99.8408 23.3828ZM103.711 23.8262C103.496 23.6045 102.851 23.3828 102.206 23.3828C102.206 23.1612 102.421 22.9395 102.421 22.9395C102.636 22.9395 102.851 22.9395 103.066 22.9395C103.066 22.9395 103.281 22.9395 103.281 23.1612C103.281 23.1612 103.281 23.1612 103.281 22.9395C103.496 22.9395 103.496 22.9395 103.711 22.9395C103.926 23.3828 104.141 23.6045 103.711 23.8262ZM110.807 24.4911C109.732 24.7128 109.087 24.2695 108.012 23.6045C108.657 23.6045 109.517 23.8262 110.162 24.0478C110.377 24.0478 110.592 24.2695 110.807 24.4911ZM187.357 55.9674C186.927 56.189 186.712 56.189 186.282 55.3024C182.841 47.7658 176.606 36.9043 167.574 27.8161C158.758 18.5062 146.932 10.9697 136.18 6.97971C136.825 7.20138 137.686 7.64471 137.256 8.08803C127.794 4.31975 118.763 2.10311 110.162 1.21646C86.9391 -2.55182 62.641 2.54644 43.9336 14.9596C44.1487 15.4029 44.1487 15.6246 43.5036 16.0679C36.6227 20.5012 26.9465 28.2594 19.2055 38.456C11.4645 48.6525 5.44374 61.509 2.86341 73.0355C3.07844 72.3705 3.29347 71.2622 3.72352 71.7055C-1.86719 94.5368 -0.362001 114.043 7.37899 130.89C7.80904 130.446 6.30385 128.23 7.59401 128.451C8.45412 130.89 9.52926 133.55 10.8194 135.988C12.3246 139.535 14.0448 144.19 16.4101 145.298C10.3894 133.106 6.30385 119.142 5.87379 106.728C6.7339 108.502 6.51888 112.27 7.80904 113.822C8.2391 105.398 6.30385 94.0935 9.0992 86.1136C8.45412 90.3252 8.02407 96.0885 8.45412 101.852C8.45412 106.063 10.3894 117.812 11.6795 118.92C11.4645 118.698 11.4645 117.59 11.6795 117.59C12.3246 118.92 10.8194 119.585 11.8946 119.806C11.8946 119.363 12.1096 119.363 12.3246 119.363C14.4749 124.24 17.2702 131.776 19.4205 135.545C22.0008 140.421 25.4413 144.855 29.3118 148.844C29.3118 149.066 29.5268 149.066 29.5268 149.288C29.9569 150.396 31.4621 151.726 31.8921 152.613C32.1071 153.056 31.6771 153.721 31.8921 154.164C35.1175 160.371 39.8481 166.578 45.6539 171.454C49.3093 175.887 55.1151 180.542 62.211 184.532C69.0919 188.301 77.0479 191.404 84.3588 193.177C89.5194 194.507 95.7552 194.729 99.6257 195.615C104.786 196.724 113.818 195.172 118.333 194.285C145.427 190.074 172.305 171.011 185.852 143.525C199.828 115.817 199.398 81.902 187.357 55.9674Z" fill="#2F8F8B"/>
</svg>
