<svg width="197" height="80" viewBox="0 0 197 80" fill="none" xmlns="http://www.w3.org/2000/svg">
<path d="M17.136 34.272C14.768 34.272 12.576 33.856 10.56 33.024C8.544 32.192 6.784 31.024 5.28 29.52C3.776 27.984 2.608 26.176 1.776 24.096C0.976 21.984 0.576 19.664 0.576 17.136C0.576 14.608 0.976 12.304 1.776 10.224C2.608 8.112 3.776 6.304 5.28 4.8C6.784 3.264 8.544 2.08 10.56 1.248C12.576 0.415999 14.768 0 17.136 0C19.472 0 21.632 0.415999 23.616 1.248C25.632 2.08 27.376 3.264 28.848 4.8C30.352 6.304 31.52 8.112 32.352 10.224C33.184 12.304 33.6 14.608 33.6 17.136C33.6 19.664 33.184 21.984 32.352 24.096C31.52 26.176 30.352 27.984 28.848 29.52C27.376 31.024 25.632 32.192 23.616 33.024C21.632 33.856 19.472 34.272 17.136 34.272ZM17.136 31.728C19.664 31.728 21.936 31.136 23.952 29.952C26 28.768 27.616 27.088 28.8 24.912C30.016 22.736 30.624 20.144 30.624 17.136C30.624 14.128 30.016 11.536 28.8 9.36C27.616 7.152 26 5.472 23.952 4.32C21.936 3.136 19.664 2.544 17.136 2.544C14.576 2.544 12.272 3.136 10.224 4.32C8.176 5.472 6.544 7.152 5.328 9.36C4.144 11.536 3.552 14.128 3.552 17.136C3.552 20.144 4.144 22.736 5.328 24.912C6.544 27.088 8.176 28.768 10.224 29.952C12.272 31.136 14.576 31.728 17.136 31.728Z" fill="#B86A40"/>
<path d="M51.2325 17.328C53.2165 17.328 54.8165 17.024 56.0325 16.416C57.2805 15.808 58.1765 14.96 58.7205 13.872C59.2965 12.784 59.5845 11.536 59.5845 10.128C59.5845 7.856 58.9285 6.08 57.6165 4.8C56.3365 3.52 54.2085 2.88 51.2325 2.88H42.8805V17.328H51.2325ZM62.4645 10.128C62.4645 11.504 62.2405 12.8 61.7925 14.016C61.3445 15.2 60.6565 16.24 59.7285 17.136C58.8005 18 57.6325 18.688 56.2245 19.2C54.8165 19.68 53.1525 19.92 51.2325 19.92H42.8805V33.936H39.9525V0.335999H51.2325C53.8885 0.335999 56.0325 0.767999 57.6645 1.632C59.2965 2.496 60.4965 3.664 61.2645 5.136C62.0645 6.608 62.4645 8.272 62.4645 10.128Z" fill="#B86A40"/>
<path d="M90.4286 2.88H71.7086V15.504H85.7726V18.048H71.7086V31.392H90.4286V33.936H68.7806V0.335999H90.4286V2.88Z" fill="#B86A40"/>
<path d="M122.945 0.335999V33.936H120.017L100.865 5.04V33.936H97.9369V0.335999H100.865L120.017 29.184V0.335999H122.945Z" fill="#B86A40"/>
<path d="M7.776 61.712C7.936 62.64 8.256 63.392 8.736 63.968C9.248 64.512 9.856 64.912 10.56 65.168C11.296 65.392 12.096 65.504 12.96 65.504C14.464 65.504 15.616 65.2 16.416 64.592C17.248 63.952 17.664 63.136 17.664 62.144C17.664 61.344 17.408 60.704 16.896 60.224C16.416 59.744 15.728 59.344 14.832 59.024C13.968 58.672 12.96 58.32 11.808 57.968C10.528 57.616 9.232 57.216 7.92 56.768C6.608 56.288 5.392 55.696 4.272 54.992C3.152 54.256 2.256 53.312 1.584 52.16C0.912 51.008 0.592 49.568 0.624 47.84C0.624 45.728 1.168 43.936 2.256 42.464C3.344 40.992 4.816 39.888 6.672 39.152C8.528 38.384 10.656 38 13.056 38C15.232 38 17.168 38.32 18.864 38.96C20.56 39.6 21.952 40.544 23.04 41.792C24.16 43.008 24.944 44.528 25.392 46.352L17.712 47.696C17.584 46.992 17.296 46.416 16.848 45.968C16.4 45.52 15.856 45.2 15.216 45.008C14.608 44.784 14 44.672 13.392 44.672C12.624 44.672 11.92 44.8 11.28 45.056C10.64 45.312 10.112 45.68 9.696 46.16C9.312 46.64 9.12 47.2 9.12 47.84C9.12 48.544 9.344 49.12 9.792 49.568C10.272 50.016 10.912 50.416 11.712 50.768C12.512 51.12 13.392 51.456 14.352 51.776C15.664 52.192 17.008 52.64 18.384 53.12C19.76 53.6 21.04 54.224 22.224 54.992C23.408 55.728 24.352 56.688 25.056 57.872C25.792 59.024 26.16 60.48 26.16 62.24C26.16 64.128 25.696 65.824 24.768 67.328C23.84 68.832 22.448 70.032 20.592 70.928C18.736 71.824 16.384 72.272 13.536 72.272C11.136 72.272 8.976 71.936 7.056 71.264C5.168 70.56 3.616 69.536 2.4 68.192C1.184 66.848 0.384 65.2 0 63.248L7.776 61.712Z" fill="#B86A40"/>
<path d="M79.1111 38.336V64.928H93.7511V71.936H70.7591V38.336H79.1111Z" fill="#B86A40"/>
<path d="M114.523 45.344H112.843L103.532 71.936H94.8915L107.18 38.336H120.428L132.62 71.936H123.979L114.523 45.344ZM103.868 58.208H123.451V65.216H103.868V58.208Z" fill="#B86A40"/>
<path d="M134.197 55.136C134.197 52.64 134.598 50.352 135.398 48.272C136.23 46.16 137.382 44.336 138.854 42.8C140.358 41.264 142.15 40.08 144.23 39.248C146.31 38.416 148.598 38 151.094 38C154.87 38 158.102 38.944 160.79 40.832C163.478 42.688 165.397 45.248 166.549 48.512L159.301 50.096C158.726 48.912 158.038 47.952 157.238 47.216C156.438 46.448 155.525 45.888 154.501 45.536C153.477 45.184 152.342 45.008 151.094 45.008C149.302 45.008 147.766 45.456 146.486 46.352C145.206 47.248 144.229 48.464 143.557 50C142.885 51.504 142.549 53.216 142.549 55.136C142.549 57.088 142.885 58.832 143.557 60.368C144.229 61.872 145.206 63.072 146.486 63.968C147.766 64.832 149.302 65.264 151.094 65.264C152.342 65.264 153.51 65.088 154.598 64.736C155.686 64.352 156.661 63.744 157.525 62.912C158.389 62.048 159.126 60.928 159.734 59.552L166.79 60.992C165.638 64.576 163.702 67.36 160.982 69.344C158.262 71.296 154.966 72.272 151.094 72.272C148.598 72.272 146.31 71.856 144.23 71.024C142.15 70.192 140.358 69.024 138.854 67.52C137.382 65.984 136.23 64.176 135.398 62.096C134.598 59.984 134.197 57.664 134.197 55.136Z" fill="#B86A40"/>
<path d="M196.365 45.344H179.517V51.632H192.093V58.16H179.517V64.928H196.365V71.936H171.165V38.336H196.365V45.344Z" fill="#B86A40"/>
<path d="M48.2964 74.6C48.0595 74.306 47.8225 74.4824 47.8225 74.306C46.4007 74.6588 43.7348 73.7179 42.6092 73.8355C42.8461 73.4826 42.2537 73.5415 42.2537 73.3062C42.0168 73.6591 41.7798 73.3062 41.4243 73.4238C41.0689 72.5417 39.6471 73.1886 39.4693 72.0712C38.6399 72.0712 38.3437 71.6008 37.5143 71.1303C37.5736 71.0715 37.6328 71.0715 37.6921 71.0127C37.2774 70.9539 37.2774 70.7186 36.9219 70.7186L37.0404 70.4834C36.3887 70.3658 36.1518 69.366 35.2039 69.0132C34.9077 68.9544 34.256 67.9546 33.9006 67.7194C33.7228 67.6018 33.4266 67.6018 33.8413 67.543C33.7821 67.4842 33.7821 67.3665 33.8413 67.3077C33.4266 67.1901 33.3674 66.8373 32.8342 66.6608C32.775 66.4844 32.9527 66.3668 32.8342 66.2492C32.7157 66.1904 32.538 66.308 32.4195 66.2492C32.3603 67.3077 33.5451 67.4253 33.9006 68.3075C33.7821 68.1899 33.6044 67.837 33.4859 68.0722C33.4266 68.2487 33.9598 68.8956 33.9598 68.5427C33.7821 68.6603 33.7228 68.3663 33.8413 68.3075C34.0191 68.6015 34.3745 68.5427 34.3745 68.778C34.1968 68.9544 33.9598 68.6015 34.019 68.8956C34.5522 69.1896 34.493 69.4836 34.7892 69.8953C34.5522 69.6013 34.493 70.1305 34.256 69.8953C34.1968 69.0132 33.1897 69.1896 33.1897 68.3075C33.0712 68.0134 32.9527 68.2487 32.775 68.1311C33.0119 67.8958 32.0641 67.0725 32.0641 67.3665C31.7678 67.0137 31.9456 66.8961 31.8863 66.6608C31.6494 66.602 31.8271 66.8961 31.6494 66.7197C31.8863 66.308 31.3531 65.7787 30.9977 65.367L31.2347 65.2494C30.82 65.0142 30.7607 64.5437 30.4645 64.0144C30.1091 64.5437 31.1754 65.7199 30.9977 65.9551C30.9977 66.0139 31.4124 66.4844 31.5309 66.7197C32.0048 67.543 32.3603 68.5427 33.0119 69.0132C32.8934 68.9544 32.9527 68.6015 33.1304 68.778C33.1304 68.9544 33.0119 69.1308 33.0119 69.3072C33.3674 69.6601 33.6636 69.9541 34.019 70.307C33.2489 69.8365 32.4788 69.366 31.9456 68.6603C32.2418 68.6015 32.538 69.1308 32.775 69.072C32.1825 68.6015 32.3603 68.4251 32.1233 67.837C31.8863 67.6606 32.1825 68.0722 31.9456 68.1311C31.1754 67.4253 30.583 67.0137 30.2275 66.3668C30.2868 66.308 30.346 66.2492 30.346 66.1316C30.2868 66.0728 30.2868 66.0727 30.2275 66.0139C30.583 66.3668 30.7015 66.6608 31.1162 66.7197C30.9385 66.5432 31.1162 66.4844 30.8792 66.308C30.7607 66.0728 30.583 66.4256 30.4645 66.2492C30.583 66.0728 30.4645 65.8375 30.4645 65.6611C30.346 65.6611 30.2275 65.6611 30.1683 65.4847C30.0498 65.4258 29.9906 65.4847 29.9313 65.6023C29.8721 65.5435 29.8721 65.4258 29.8128 65.367V65.3082C29.7536 65.2494 29.6944 65.1318 29.6351 65.073C29.1612 63.838 28.865 62.1914 28.2133 61.1328C28.391 60.4271 28.0948 59.0157 27.9171 58.6628C28.0948 58.3688 27.9763 57.0162 27.8579 56.781C27.5616 56.8986 27.9171 57.5455 27.6209 57.7219C27.3247 56.4281 27.7986 54.9579 27.6801 53.7817C27.7986 53.7817 27.9171 53.7817 27.9171 53.7229C27.7394 53.5465 28.0356 53.1936 27.9763 52.782C28.2133 52.2527 27.4432 53.5465 27.4432 54.0758C27.3839 54.1934 27.1469 54.0758 27.2062 54.3698C27.2062 54.7815 27.3247 55.6048 27.0877 56.1929C26.9692 56.1929 26.9692 56.0753 26.8507 56.1341C26.7915 56.4281 26.7323 56.781 26.673 57.075C26.6138 56.9574 26.5545 56.781 26.5545 56.7222C26.2583 55.2519 26.5545 53.5465 26.436 52.3115C26.673 52.3115 26.673 51.9587 26.8507 51.841C26.7915 52.3115 26.673 52.8996 26.9692 53.0172C27.2062 50.7237 27.6801 48.1949 28.7465 45.7249C29.5166 43.9019 30.6422 42.0788 32.0048 40.6086C32.1233 40.785 31.9456 41.1967 32.0048 41.3731C33.1897 40.1381 33.9598 38.6679 35.2631 37.8446C35.3224 38.1386 34.73 38.3738 34.73 38.6091C35.2631 38.0798 35.4409 38.2562 36.0333 38.0798C36.211 37.8446 35.7963 38.0798 35.7371 37.8446C36.0925 37.6093 36.3295 37.3153 36.5665 37.1389C36.5665 37.1977 36.5072 37.1977 36.5072 37.2565C37.1589 37.08 37.2181 36.7272 37.6921 36.6096C37.6328 36.5508 37.5143 36.492 37.3366 36.5508C37.4551 36.492 37.6328 36.3743 37.8106 36.3155C37.7513 36.3155 37.7513 36.3743 37.6921 36.3743C38.0475 36.1979 37.7513 36.4331 37.7513 36.5508C37.8106 36.5508 37.8698 36.492 37.8698 36.492C37.5143 36.7272 37.2774 36.8448 37.1589 37.2565C37.3366 37.1389 37.3959 37.2565 37.6328 37.08C37.8698 36.9624 37.5736 36.786 37.7513 36.6684C37.929 36.786 38.166 36.7272 38.3437 36.7272C38.3437 36.6096 38.403 36.492 38.5215 36.4331C38.5807 36.3155 38.5215 36.2567 38.4622 36.2567C38.5215 36.1979 38.5807 36.1979 38.6992 36.1391C38.6992 36.1391 38.7584 36.1391 38.7584 36.1979C39.7655 35.7274 40.8911 35.3158 41.9575 34.9629C42.6092 34.9041 43.4386 34.9041 43.794 34.4925C43.6755 34.4925 43.5571 34.5513 43.4978 34.4925C43.5571 34.4925 43.6755 34.4337 43.7348 34.4337C43.8533 34.5513 44.031 34.4336 43.8533 34.6689C43.9125 34.6689 43.9125 34.6689 43.9717 34.6101C43.9717 34.6689 43.9717 34.6689 44.031 34.7277C44.0902 34.7277 44.1495 34.6689 44.2087 34.5513C44.268 34.5513 44.3272 34.5513 44.3864 34.4925L44.3272 34.5513C44.8011 34.4337 45.2158 34.4925 45.8675 34.3748C45.8675 34.316 45.8675 34.2572 45.8675 34.1984C45.986 34.1984 46.0452 34.1396 46.1637 34.1396V34.1984C46.4007 34.0808 46.6376 34.316 46.6376 34.1984C46.6969 34.1984 46.6969 34.1984 46.7561 34.1984C46.7561 34.316 46.6969 34.3748 46.6969 34.4337C46.9931 34.4337 47.1708 34.4337 47.2893 34.2572C47.2301 34.1984 47.1708 34.1984 47.1116 34.1984C47.2301 34.1984 47.3486 34.1396 47.467 34.0808C47.6448 34.1396 47.704 34.1984 47.704 34.4337C48.0002 33.9044 48.9481 34.5513 49.3628 34.4337C49.5405 34.4337 49.4813 34.1984 49.5998 34.0808C49.659 34.0808 49.7182 34.0808 49.7775 34.0808C50.0737 34.316 50.4884 34.5513 51.0216 34.6101C50.5476 34.4925 51.0808 34.4337 51.1401 34.3748C51.0216 34.3748 51.0216 34.316 51.0216 34.2572C51.1993 34.2572 51.377 34.316 51.5548 34.316C51.5548 34.4337 51.614 34.4925 51.7325 34.4925C51.851 34.4925 51.851 34.4337 51.851 34.316C52.0287 34.316 52.1472 34.316 52.3249 34.3748C52.2657 34.6101 52.6211 34.6689 52.7396 34.8453C52.2657 34.7277 51.7325 34.5513 51.5548 34.8453C53.4505 35.257 55.524 35.8451 57.5382 36.8448C57.5382 36.8448 57.5382 36.8448 57.5382 36.9036H57.5975C57.9529 37.08 58.3084 37.2565 58.6638 37.4329C58.9008 37.5505 59.0785 37.6681 59.3155 37.8446C59.3155 37.9034 59.3155 37.9622 59.434 37.9622H59.4932C59.7302 38.1386 59.9671 38.2562 60.2041 38.4326C60.4411 38.7855 60.6781 39.256 61.0928 39.1384C61.9814 40.491 62.9293 41.0202 63.6994 42.4316C63.7587 42.1964 63.9364 42.9609 64.2326 43.0197C63.7587 42.9609 64.5288 43.3138 64.0549 43.255C64.4696 43.6666 64.588 43.843 64.6473 44.3135C64.5288 44.0783 64.4696 44.0195 64.4103 44.2547C64.3511 44.6076 64.825 44.1959 65.0027 44.5488C64.6473 44.5488 64.7658 44.784 64.825 45.078C65.0027 44.9016 64.9435 44.7252 65.1212 44.784C65.3582 45.0192 65.0027 45.078 65.062 45.2545C65.2397 45.0192 65.299 45.1368 65.5359 45.2545C65.2397 45.3133 65.7137 45.7249 65.3582 45.5485C65.5952 45.8425 65.6544 46.019 65.5359 46.313C65.299 45.9602 65.4767 45.7249 65.1212 45.7837C65.8321 46.3718 65.4767 47.7244 66.3061 47.842C65.7729 47.9597 66.3061 48.1949 66.0099 48.2537C66.3653 48.3713 66.1876 48.8418 66.6023 48.9594C66.543 49.2534 66.4246 49.4299 66.3653 49.7239C66.543 49.9592 66.6023 50.4296 66.8985 50.4884C66.7208 50.6649 66.8393 51.1353 66.6615 51.3118C66.8985 51.1941 67.017 51.1941 67.1947 51.4294C66.8985 51.6646 67.1355 51.8998 66.9577 51.9586C67.4909 53.3113 66.8393 56.0753 67.1355 57.1338C66.78 56.9574 66.8985 57.5455 66.6615 57.5455C67.0762 57.7219 66.7208 58.0159 66.8985 58.31C66.0691 58.7805 66.8985 60.0743 65.7729 60.3683C65.8914 61.1916 65.4174 61.5445 65.062 62.4266C65.0027 62.3678 65.0027 62.309 64.9435 62.2502C64.8843 62.6618 64.6473 62.7206 64.7658 63.0735L64.5288 62.9559C64.5288 63.6028 63.5217 63.9556 63.2847 64.9554C63.2255 65.2494 62.3368 66.0139 62.0999 66.4256C61.9814 66.602 62.0406 66.8961 61.9221 66.4844C61.8629 66.5432 61.7444 66.5432 61.6852 66.5432C61.6259 66.9549 61.2705 67.0725 61.152 67.6018C61.0335 67.6606 60.8558 67.4842 60.7373 67.6606C60.7373 67.7782 60.8558 67.9546 60.7965 68.0722C61.8629 68.0134 61.8629 66.7785 62.6923 66.3668C62.6331 66.5432 62.2776 66.7196 62.5146 66.8373C62.6923 66.8373 63.2255 66.2492 62.9293 66.308C63.107 66.4256 62.7515 66.5432 62.6923 66.4844C62.9885 66.2492 62.87 65.9551 63.107 65.8963C63.2847 66.0139 62.9293 66.308 63.2847 66.2492C63.5217 65.7199 63.8179 65.6611 64.1734 65.367C63.9364 65.6023 64.4696 65.6611 64.2326 65.8963C63.344 66.0727 63.6402 67.0725 62.7515 67.1901C62.5146 67.3665 62.6923 67.4254 62.633 67.6018C62.3368 67.4254 61.6852 68.4251 61.9221 68.3663C61.6259 68.6603 61.4482 68.5427 61.2112 68.6015C61.152 68.8368 61.4482 68.6603 61.3297 68.8368C60.915 68.6603 60.3818 69.2484 60.0264 69.6601L59.8487 69.4837C59.6709 69.9541 59.197 70.0129 58.6638 70.3658C59.2562 70.6598 60.2634 69.4248 60.5596 69.6013C60.6188 69.6013 61.0928 69.1308 61.2705 68.9544C62.0406 68.3663 62.9885 67.8958 63.344 67.2489C63.2847 67.3665 62.9293 67.3665 63.107 67.1901C63.2847 67.1313 63.4624 67.2489 63.6402 67.2489C64.588 65.9551 65.7729 64.8966 66.6615 63.3675C66.7208 63.3087 66.78 63.1911 66.8392 63.0735C66.7208 63.4263 66.543 63.7204 66.4246 64.0732C65.4767 64.7201 65.1212 66.602 63.9956 66.8961C64.0549 67.543 63.4624 67.7194 63.1662 68.4839C62.9885 68.7191 62.87 68.3075 62.6923 68.6015C62.87 69.4248 61.2112 69.366 61.2705 70.1305C61.152 70.1894 60.9743 70.2482 60.8558 70.3658H60.7965C60.7373 70.4246 60.7373 70.4246 60.6781 70.4834C60.3818 70.6598 60.1449 70.8363 59.9079 71.0127C59.0785 71.4832 57.9529 71.836 57.0643 72.3065V72.2477C56.8273 72.3653 56.5311 72.3065 56.5903 72.5417C56.4126 72.6593 56.2349 72.7769 56.0572 72.8946C55.9979 72.8946 55.9979 72.8946 55.9387 72.8946C55.9387 72.8946 55.8794 72.8358 55.8202 72.8358C55.7017 72.8358 55.7017 72.8358 55.6425 72.8946C54.8723 72.9534 53.8652 73.3062 53.569 73.5415C53.2728 73.365 51.9102 73.6591 51.6732 73.7767C51.7917 73.9531 52.1472 73.7767 52.4434 73.7767C52.2657 73.8355 52.0879 73.8943 52.0287 74.0119C51.9694 74.0119 51.9694 74.0119 51.9102 74.0119C51.851 73.8355 51.6732 74.0119 51.614 73.9531H51.6732C51.614 73.7179 51.4363 73.6003 51.1401 73.6591C51.1401 73.7767 51.1401 73.8355 51.0808 73.9531C51.1993 73.9531 51.5548 73.7767 51.5548 73.9531C51.4955 73.9531 51.4955 74.0119 51.5548 74.0119C51.4363 74.1295 51.2585 74.1295 51.1401 74.1884C50.9031 74.1884 50.6069 74.1884 50.3699 74.1884C50.3107 74.1295 50.2514 74.1295 50.1329 74.0707C50.0737 74.1295 49.9552 74.1295 49.896 74.1884C49.5405 74.1884 49.1258 74.2472 48.8296 74.306C48.8296 74.1884 48.8296 74.0707 48.7111 74.0707C48.5334 74.306 48.1779 74.0119 47.7632 74.1295C47.3486 74.0119 48.0002 74.306 48.5926 74.4236C48.5334 74.4824 48.4742 74.5412 48.2964 74.6ZM40.0025 75.4233C39.1731 74.6588 37.4551 74.306 37.1589 73.7179C36.685 73.6591 35.974 72.7769 35.3816 72.6593C35.6778 72.6593 35.4409 72.4829 35.3816 72.3653C35.2631 72.4829 35.1447 72.5417 35.0262 72.5417C35.0262 72.0712 34.5522 71.7772 34.1375 71.4832C34.4337 71.6596 34.6707 71.7772 35.0262 71.836C35.0262 71.7184 35.0262 71.6008 35.1446 71.6008C35.5593 72.0124 36.0333 72.4241 36.5665 72.8358C37.2774 73.4826 40.9504 75.1293 41.6021 75.4233C41.6021 75.4233 41.4836 75.6586 41.5428 75.6586C41.839 75.835 42.076 75.4821 42.1352 75.8938C41.1874 76.0114 40.8319 75.3645 40.0025 75.4233ZM67.3132 61.7797V61.8385C67.2539 61.8385 67.3132 61.7797 67.3132 61.7797ZM43.3793 34.5513C43.3201 34.6101 43.2608 34.6101 43.2608 34.6101C43.2608 34.5513 43.3201 34.5513 43.3793 34.5513ZM38.3437 36.0803C38.403 36.0215 38.403 36.0215 38.4622 36.0215C38.403 36.0215 38.3437 36.0803 38.3437 36.0803ZM47.8225 34.1396C47.704 34.1396 47.6448 34.1396 47.5855 34.0808C47.6448 34.0808 47.704 34.0808 47.7632 34.0808H47.8225C47.8225 34.0808 47.8225 34.0808 47.8225 34.1396ZM48.8889 34.2572C48.8296 34.1984 48.6519 34.1396 48.4742 34.1396C48.4742 34.0808 48.5334 34.022 48.5334 34.022C48.5926 34.022 48.6519 34.022 48.7111 34.022C48.7111 34.022 48.7704 34.022 48.7704 34.0808C48.7704 34.0808 48.7704 34.0808 48.7704 34.022C48.8296 34.022 48.8296 34.022 48.8889 34.022C48.9481 34.1396 49.0073 34.1984 48.8889 34.2572ZM50.8438 34.4337C50.5476 34.4925 50.3699 34.3748 50.0737 34.1984C50.2514 34.1984 50.4884 34.2572 50.6661 34.316C50.7254 34.316 50.7846 34.3748 50.8438 34.4337ZM71.9341 42.7845C71.8156 42.8433 71.7564 42.8433 71.6379 42.6081C70.69 40.6086 68.972 37.7269 66.4838 35.3158C64.0549 32.8458 60.7965 30.8463 57.8344 29.7878C58.0122 29.8466 58.2491 29.9642 58.1306 30.0818C55.524 29.0821 53.0358 28.494 50.6661 28.2587C44.268 27.259 37.5736 28.6116 32.4195 31.9049C32.4788 32.0225 32.4788 32.0813 32.301 32.1989C30.4053 33.3751 27.7394 35.4334 25.6067 38.1386C23.4739 40.8438 21.8151 44.2547 21.1042 47.3128C21.1635 47.1363 21.2227 46.8423 21.3412 46.9599C19.8009 53.0172 20.2156 58.1924 22.3483 62.6618C22.4668 62.5442 22.0521 61.9561 22.4076 62.0149C22.6445 62.6618 22.9408 63.3675 23.2962 64.0144C23.7109 64.9554 24.1848 66.1904 24.8365 66.4844C23.1777 63.2499 22.0521 59.545 21.9336 56.2517C22.1706 56.7222 22.1114 57.7219 22.4668 58.1336C22.5853 55.8988 22.0521 52.8996 22.8223 50.7825C22.6445 51.8998 22.5261 53.4289 22.6445 54.9579C22.6445 56.0753 23.1777 59.1921 23.5332 59.4862C23.4739 59.4274 23.4739 59.1333 23.5332 59.1333C23.7109 59.4862 23.2962 59.6626 23.5924 59.7214C23.5924 59.6038 23.6517 59.6038 23.7109 59.6038C24.3033 60.8976 25.0735 62.8971 25.6659 63.8968C26.3768 65.1906 27.3247 66.3668 28.391 67.4253C28.391 67.4842 28.4503 67.4842 28.4503 67.543C28.5688 67.837 28.9835 68.1899 29.1019 68.4251C29.1612 68.5427 29.0427 68.7191 29.1019 68.8368C29.9906 70.4834 31.2939 72.13 32.8934 73.4238C33.9006 74.6 35.5001 75.835 37.4551 76.8936C39.3509 77.8933 41.5428 78.7166 43.557 79.1871C44.9789 79.5399 46.6969 79.5988 47.7632 79.834C49.1851 80.128 51.6732 79.7164 52.9173 79.4811C60.3818 78.3638 67.7871 73.3062 71.5194 66.0139C75.3701 58.6628 75.2516 49.6651 71.9341 42.7845Z" fill="#2F8F8B"/>
</svg>
