<svg width="200" height="82" viewBox="0 0 200 82" fill="none" xmlns="http://www.w3.org/2000/svg">
<path d="M18.72 36.336C16.352 36.336 14.16 35.92 12.144 35.088C10.128 34.256 8.368 33.088 6.864 31.584C5.36 30.048 4.192 28.24 3.36 26.16C2.56 24.048 2.16 21.728 2.16 19.2C2.16 16.672 2.56 14.368 3.36 12.288C4.192 10.176 5.36 8.368 6.864 6.864C8.368 5.328 10.128 4.144 12.144 3.312C14.16 2.48 16.352 2.064 18.72 2.064C21.056 2.064 23.216 2.48 25.2 3.312C27.216 4.144 28.96 5.328 30.432 6.864C31.936 8.368 33.104 10.176 33.936 12.288C34.768 14.368 35.184 16.672 35.184 19.2C35.184 21.728 34.768 24.048 33.936 26.16C33.104 28.24 31.936 30.048 30.432 31.584C28.96 33.088 27.216 34.256 25.2 35.088C23.216 35.92 21.056 36.336 18.72 36.336ZM18.72 33.792C21.248 33.792 23.52 33.2 25.536 32.016C27.584 30.832 29.2 29.152 30.384 26.976C31.6 24.8 32.208 22.208 32.208 19.2C32.208 16.192 31.6 13.6 30.384 11.424C29.2 9.216 27.584 7.536 25.536 6.384C23.52 5.2 21.248 4.608 18.72 4.608C16.16 4.608 13.856 5.2 11.808 6.384C9.76 7.536 8.128 9.216 6.912 11.424C5.728 13.6 5.136 16.192 5.136 19.2C5.136 22.208 5.728 24.8 6.912 26.976C8.128 29.152 9.76 30.832 11.808 32.016C13.856 33.2 16.16 33.792 18.72 33.792ZM52.8165 19.392C54.8005 19.392 56.4005 19.088 57.6165 18.48C58.8645 17.872 59.7605 17.024 60.3045 15.936C60.8805 14.848 61.1685 13.6 61.1685 12.192C61.1685 9.92 60.5125 8.144 59.2005 6.864C57.9205 5.584 55.7925 4.944 52.8165 4.944H44.4645V19.392H52.8165ZM64.0485 12.192C64.0485 13.568 63.8245 14.864 63.3765 16.08C62.9285 17.264 62.2405 18.304 61.3125 19.2C60.3845 20.064 59.2165 20.752 57.8085 21.264C56.4005 21.744 54.7365 21.984 52.8165 21.984H44.4645V36H41.5365V2.4H52.8165C55.4725 2.4 57.6165 2.832 59.2485 3.696C60.8805 4.56 62.0805 5.728 62.8485 7.2C63.6485 8.672 64.0485 10.336 64.0485 12.192ZM92.0126 4.944H73.2926V17.568H87.3566V20.112H73.2926V33.456H92.0126V36H70.3646V2.4H92.0126V4.944ZM124.529 2.4V36H121.601L102.449 7.104V36H99.5209V2.4H102.449L121.601 31.248V2.4H124.529ZM9.36 63.776C9.52 64.704 9.84 65.456 10.32 66.032C10.832 66.576 11.44 66.976 12.144 67.232C12.88 67.456 13.68 67.568 14.544 67.568C16.048 67.568 17.2 67.264 18 66.656C18.832 66.016 19.248 65.2 19.248 64.208C19.248 63.408 18.992 62.768 18.48 62.288C18 61.808 17.312 61.408 16.416 61.088C15.552 60.736 14.544 60.384 13.392 60.032C12.112 59.68 10.816 59.28 9.504 58.832C8.192 58.352 6.976 57.76 5.856 57.056C4.736 56.32 3.84 55.376 3.168 54.224C2.496 53.072 2.176 51.632 2.208 49.904C2.208 47.792 2.752 46 3.84 44.528C4.928 43.056 6.4 41.952 8.256 41.216C10.112 40.448 12.24 40.064 14.64 40.064C16.816 40.064 18.752 40.384 20.448 41.024C22.144 41.664 23.536 42.608 24.624 43.856C25.744 45.072 26.528 46.592 26.976 48.416L19.296 49.76C19.168 49.056 18.88 48.48 18.432 48.032C17.984 47.584 17.44 47.264 16.8 47.072C16.192 46.848 15.584 46.736 14.976 46.736C14.208 46.736 13.504 46.864 12.864 47.12C12.224 47.376 11.696 47.744 11.28 48.224C10.896 48.704 10.704 49.264 10.704 49.904C10.704 50.608 10.928 51.184 11.376 51.632C11.856 52.08 12.496 52.48 13.296 52.832C14.096 53.184 14.976 53.52 15.936 53.84C17.248 54.256 18.592 54.704 19.968 55.184C21.344 55.664 22.624 56.288 23.808 57.056C24.992 57.792 25.936 58.752 26.64 59.936C27.376 61.088 27.744 62.544 27.744 64.304C27.744 66.192 27.28 67.888 26.352 69.392C25.424 70.896 24.032 72.096 22.176 72.992C20.32 73.888 17.968 74.336 15.12 74.336C12.72 74.336 10.56 74 8.64 73.328C6.752 72.624 5.2 71.6 3.984 70.256C2.768 68.912 1.968 67.264 1.584 65.312L9.36 63.776ZM80.6951 40.4V66.992H95.3351V74H72.3431V40.4H80.6951ZM116.108 47.408H114.428L105.116 74H96.4755L108.764 40.4H122.012L134.204 74H125.564L116.108 47.408ZM105.452 60.272H125.036V67.28H105.452V60.272ZM135.782 57.2C135.782 54.704 136.182 52.416 136.982 50.336C137.814 48.224 138.966 46.4 140.438 44.864C141.942 43.328 143.734 42.144 145.814 41.312C147.894 40.48 150.182 40.064 152.678 40.064C156.454 40.064 159.686 41.008 162.374 42.896C165.062 44.752 166.982 47.312 168.134 50.576L160.885 52.16C160.31 50.976 159.622 50.016 158.822 49.28C158.022 48.512 157.11 47.952 156.086 47.6C155.062 47.248 153.926 47.072 152.678 47.072C150.886 47.072 149.35 47.52 148.07 48.416C146.79 49.312 145.814 50.528 145.142 52.064C144.47 53.568 144.134 55.28 144.134 57.2C144.134 59.152 144.47 60.896 145.142 62.432C145.814 63.936 146.79 65.136 148.07 66.032C149.35 66.896 150.886 67.328 152.678 67.328C153.926 67.328 155.094 67.152 156.182 66.8C157.27 66.416 158.246 65.808 159.109 64.976C159.974 64.112 160.71 62.992 161.318 61.616L168.374 63.056C167.222 66.64 165.286 69.424 162.566 71.408C159.846 73.36 156.55 74.336 152.678 74.336C150.182 74.336 147.894 73.92 145.814 73.088C143.734 72.256 141.942 71.088 140.438 69.584C138.966 68.048 137.814 66.24 136.982 64.16C136.182 62.048 135.782 59.728 135.782 57.2ZM197.949 47.408H181.101V53.696H193.677V60.224H181.101V66.992H197.949V74H172.749V40.4H197.949V47.408Z" fill="#D9D9D9"/>
<path d="M49.8804 76.664C49.6435 76.37 49.4065 76.5464 49.4065 76.37C47.9847 76.7228 45.3188 75.7819 44.1932 75.8995C44.4301 75.5466 43.8377 75.6055 43.8377 75.3702C43.6008 75.7231 43.3638 75.3702 43.0083 75.4878C42.6529 74.6057 41.2311 75.2526 41.0533 74.1352C40.2239 74.1352 39.9277 73.6648 39.0983 73.1943C39.1576 73.1355 39.2168 73.1355 39.2761 73.0767C38.8614 73.0179 38.8614 72.7826 38.5059 72.7826L38.6244 72.5474C37.9727 72.4298 37.7358 71.43 36.7879 71.0772C36.4917 71.0184 35.84 70.0186 35.4846 69.7834C35.3068 69.6658 35.0106 69.6658 35.4253 69.607C35.3661 69.5482 35.3661 69.4305 35.4253 69.3717C35.0106 69.2541 34.9514 68.9013 34.4182 68.7248C34.359 68.5484 34.5367 68.4308 34.4182 68.3132C34.2997 68.2544 34.122 68.372 34.0035 68.3132C33.9443 69.3717 35.1291 69.4893 35.4846 70.3715C35.3661 70.2539 35.1884 69.901 35.0699 70.1362C35.0106 70.3127 35.5438 70.9596 35.5438 70.6067C35.3661 70.7243 35.3068 70.4303 35.4253 70.3715C35.603 70.6655 35.9585 70.6067 35.9585 70.8419C35.7808 71.0184 35.5438 70.6655 35.603 70.9596C36.1362 71.2536 36.077 71.5477 36.3732 71.9593C36.1362 71.6653 36.077 72.1945 35.84 71.9593C35.7808 71.0772 34.7737 71.2536 34.7737 70.3715C34.6552 70.0774 34.5367 70.3127 34.359 70.195C34.5959 69.9598 33.6481 69.1365 33.6481 69.4305C33.3518 69.0777 33.5296 68.9601 33.4703 68.7248C33.2334 68.666 33.4111 68.9601 33.2334 68.7836C33.4703 68.372 32.9371 67.8427 32.5817 67.431L32.8187 67.3134C32.404 67.0782 32.3447 66.6077 32.0485 66.0784C31.6931 66.6077 32.7594 67.7839 32.5817 68.0191C32.5817 68.0779 32.9964 68.5484 33.1149 68.7836C33.5888 69.607 33.9443 70.6067 34.5959 71.0772C34.4774 71.0184 34.5367 70.6655 34.7144 70.8419C34.7144 71.0184 34.5959 71.1948 34.5959 71.3712C34.9514 71.7241 35.2476 72.0181 35.603 72.371C34.8329 71.9005 34.0627 71.43 33.5296 70.7243C33.8258 70.6655 34.122 71.1948 34.359 71.136C33.7665 70.6655 33.9443 70.4891 33.7073 69.901C33.4703 69.7246 33.7665 70.1362 33.5296 70.195C32.7594 69.4893 32.167 69.0777 31.8115 68.4308C31.8708 68.372 31.93 68.3132 31.93 68.1956C31.8708 68.1367 31.8708 68.1367 31.8115 68.0779C32.167 68.4308 32.2855 68.7248 32.7002 68.7836C32.5225 68.6072 32.7002 68.5484 32.4632 68.372C32.3447 68.1367 32.167 68.4896 32.0485 68.3132C32.167 68.1367 32.0485 67.9015 32.0485 67.7251C31.93 67.7251 31.8115 67.7251 31.7523 67.5487C31.6338 67.4898 31.5746 67.5487 31.5153 67.6663C31.4561 67.6075 31.4561 67.4898 31.3968 67.431V67.3722C31.3376 67.3134 31.2784 67.1958 31.2191 67.137C30.7452 65.902 30.449 64.2554 29.7973 63.1968C29.975 62.4911 29.6788 61.0797 29.5011 60.7268C29.6788 60.4328 29.5603 59.0802 29.4419 58.845C29.1456 58.9626 29.5011 59.6095 29.2049 59.7859C28.9087 58.4921 29.3826 57.0219 29.2641 55.8457C29.3826 55.8457 29.5011 55.8457 29.5011 55.7869C29.3234 55.6105 29.6196 55.2576 29.5603 54.846C29.7973 54.3167 29.0272 55.6105 29.0272 56.1398C28.9679 56.2574 28.7309 56.1398 28.7902 56.4338C28.7902 56.8455 28.9087 57.6688 28.6717 58.2569C28.5532 58.2569 28.5532 58.1393 28.4347 58.1981C28.3755 58.4921 28.3163 58.845 28.257 59.139C28.1978 59.0214 28.1385 58.845 28.1385 58.7862C27.8423 57.3159 28.1385 55.6105 28.02 54.3755C28.257 54.3755 28.257 54.0226 28.4347 53.905C28.3755 54.3755 28.257 54.9636 28.5532 55.0812C28.7902 52.7877 29.2641 50.2589 30.3305 47.7889C31.1006 45.9659 32.2262 44.1428 33.5888 42.6726C33.7073 42.849 33.5296 43.2607 33.5888 43.4371C34.7737 42.2021 35.5438 40.7319 36.8471 39.9086C36.9064 40.2026 36.314 40.4378 36.314 40.6731C36.8471 40.1438 37.0249 40.3202 37.6173 40.1438C37.795 39.9086 37.3803 40.1438 37.3211 39.9086C37.6765 39.6733 37.9135 39.3793 38.1505 39.2029C38.1505 39.2617 38.0912 39.2617 38.0912 39.3205C38.7429 39.144 38.8021 38.7912 39.2761 38.6736C39.2168 38.6148 39.0983 38.556 38.9206 38.6148C39.0391 38.556 39.2168 38.4383 39.3946 38.3795C39.3353 38.3795 39.3353 38.4383 39.2761 38.4383C39.6315 38.2619 39.3353 38.4971 39.3353 38.6148C39.3946 38.6148 39.4538 38.556 39.4538 38.556C39.0983 38.7912 38.8614 38.9088 38.7429 39.3205C38.9206 39.2029 38.9799 39.3205 39.2168 39.144C39.4538 39.0264 39.1576 38.85 39.3353 38.7324C39.513 38.85 39.75 38.7912 39.9277 38.7912C39.9277 38.6736 39.987 38.556 40.1055 38.4971C40.1647 38.3795 40.1055 38.3207 40.0462 38.3207C40.1055 38.2619 40.1647 38.2619 40.2832 38.2031C40.2832 38.2031 40.3424 38.2031 40.3424 38.2619C41.3495 37.7914 42.4751 37.3798 43.5415 37.0269C44.1932 36.9681 45.0226 36.9681 45.378 36.5565C45.2595 36.5565 45.141 36.6153 45.0818 36.5565C45.141 36.5565 45.2595 36.4977 45.3188 36.4977C45.4373 36.6153 45.615 36.4977 45.4373 36.7329C45.4965 36.7329 45.4965 36.7329 45.5557 36.6741C45.5557 36.7329 45.5557 36.7329 45.615 36.7917C45.6742 36.7917 45.7335 36.7329 45.7927 36.6153C45.852 36.6153 45.9112 36.6153 45.9704 36.5565L45.9112 36.6153C46.3851 36.4977 46.7998 36.5565 47.4515 36.4388C47.4515 36.38 47.4515 36.3212 47.4515 36.2624C47.57 36.2624 47.6292 36.2036 47.7477 36.2036V36.2624C47.9847 36.1448 48.2216 36.38 48.2216 36.2624C48.2809 36.2624 48.2809 36.2624 48.3401 36.2624C48.3401 36.38 48.2809 36.4388 48.2809 36.4977C48.5771 36.4977 48.7548 36.4977 48.8733 36.3212C48.8141 36.2624 48.7548 36.2624 48.6956 36.2624C48.8141 36.2624 48.9326 36.2036 49.051 36.1448C49.2288 36.2036 49.288 36.2624 49.288 36.4977C49.5842 35.9684 50.5321 36.6153 50.9468 36.4977C51.1245 36.4977 51.0653 36.2624 51.1838 36.1448C51.243 36.1448 51.3022 36.1448 51.3615 36.1448C51.6577 36.38 52.0724 36.6153 52.6056 36.6741C52.1316 36.5565 52.6648 36.4977 52.7241 36.4388C52.6056 36.4388 52.6056 36.38 52.6056 36.3212C52.7833 36.3212 52.961 36.38 53.1388 36.38C53.1388 36.4977 53.198 36.5565 53.3165 36.5565C53.435 36.5565 53.435 36.4977 53.435 36.38C53.6127 36.38 53.7312 36.38 53.9089 36.4388C53.8497 36.6741 54.2051 36.7329 54.3236 36.9093C53.8497 36.7917 53.3165 36.6153 53.1388 36.9093C55.0345 37.321 57.108 37.9091 59.1222 38.9088C59.1222 38.9088 59.1222 38.9088 59.1222 38.9676H59.1815C59.5369 39.144 59.8924 39.3205 60.2478 39.4969C60.4848 39.6145 60.6625 39.7321 60.8995 39.9086C60.8995 39.9674 60.8995 40.0262 61.018 40.0262H61.0772C61.3142 40.2026 61.5511 40.3202 61.7881 40.4966C62.0251 40.8495 62.2621 41.32 62.6768 41.2023C63.5654 42.5549 64.5133 43.0842 65.2834 44.4956C65.3427 44.2604 65.5204 45.0249 65.8166 45.0837C65.3427 45.0249 66.1128 45.3778 65.6389 45.319C66.0536 45.7306 66.172 45.907 66.2313 46.3775C66.1128 46.1423 66.0536 46.0835 65.9943 46.3187C65.9351 46.6716 66.409 46.2599 66.5867 46.6128C66.2313 46.6128 66.3498 46.848 66.409 47.142C66.5867 46.9656 66.5275 46.7892 66.7052 46.848C66.9422 47.0832 66.5867 47.142 66.646 47.3185C66.8237 47.0832 66.883 47.2008 67.1199 47.3185C66.8237 47.3773 67.2976 47.7889 66.9422 47.6125C67.1792 47.9065 67.2384 48.083 67.1199 48.377C66.883 48.0242 67.0607 47.7889 66.7052 47.8477C67.4161 48.4358 67.0607 49.7884 67.8901 49.906C67.3569 50.0237 67.8901 50.2589 67.5939 50.3177C67.9493 50.4353 67.7716 50.9058 68.1863 51.0234C68.127 51.3174 68.0086 51.4939 67.9493 51.7879C68.127 52.0232 68.1863 52.4936 68.4825 52.5524C68.3048 52.7289 68.4233 53.1993 68.2455 53.3758C68.4825 53.2581 68.601 53.2581 68.7787 53.4934C68.4825 53.7286 68.7195 53.9638 68.5417 54.0227C69.0749 55.3753 68.4233 58.1393 68.7195 59.1978C68.364 59.0214 68.4825 59.6095 68.2455 59.6095C68.6602 59.7859 68.3048 60.0799 68.4825 60.374C67.6531 60.8445 68.4825 62.1383 67.3569 62.4323C67.4754 63.2556 67.0014 63.6085 66.646 64.4906C66.5867 64.4318 66.5867 64.373 66.5275 64.3142C66.4683 64.7258 66.2313 64.7846 66.3498 65.1375L66.1128 65.0199C66.1128 65.6668 65.1057 66.0196 64.8687 67.0194C64.8095 67.3134 63.9208 68.0779 63.6839 68.4896C63.5654 68.666 63.6246 68.9601 63.5061 68.5484C63.4469 68.6072 63.3284 68.6072 63.2692 68.6072C63.2099 69.0189 62.8545 69.1365 62.736 69.6658C62.6175 69.7246 62.4398 69.5482 62.3213 69.7246C62.3213 69.8422 62.4398 70.0186 62.3805 70.1362C63.4469 70.0774 63.4469 68.8424 64.2763 68.4308C64.2171 68.6072 63.8616 68.7836 64.0986 68.9013C64.2763 68.9013 64.8095 68.3132 64.5133 68.372C64.691 68.4896 64.3355 68.6072 64.2763 68.5484C64.5725 68.3132 64.454 68.0191 64.691 67.9603C64.8687 68.0779 64.5133 68.372 64.8687 68.3132C65.1057 67.7839 65.4019 67.7251 65.7574 67.431C65.5204 67.6663 66.0536 67.7251 65.8166 67.9603C64.928 68.1367 65.2242 69.1365 64.3355 69.2541C64.0986 69.4305 64.2763 69.4893 64.217 69.6658C63.9208 69.4893 63.2692 70.4891 63.5061 70.4303C63.2099 70.7243 63.0322 70.6067 62.7952 70.6655C62.736 70.9008 63.0322 70.7243 62.9137 70.9008C62.499 70.7243 61.9658 71.3124 61.6104 71.7241L61.4327 71.5477C61.2549 72.0181 60.781 72.0769 60.2478 72.4298C60.8402 72.7238 61.8474 71.4888 62.1436 71.6653C62.2028 71.6653 62.6768 71.1948 62.8545 71.0184C63.6246 70.4303 64.5725 69.9598 64.928 69.3129C64.8687 69.4305 64.5133 69.4305 64.691 69.2541C64.8687 69.1953 65.0464 69.3129 65.2242 69.3129C66.172 68.0191 67.3569 66.9606 68.2455 65.4315C68.3048 65.3727 68.364 65.2551 68.4233 65.1375C68.3048 65.4904 68.127 65.7844 68.0086 66.1372C67.0607 66.7841 66.7052 68.666 65.5796 68.9601C65.6389 69.607 65.0464 69.7834 64.7502 70.5479C64.5725 70.7831 64.454 70.3715 64.2763 70.6655C64.454 71.4888 62.7952 71.43 62.8545 72.1945C62.736 72.2534 62.5583 72.3122 62.4398 72.4298H62.3805C62.3213 72.4886 62.3213 72.4886 62.2621 72.5474C61.9658 72.7238 61.7289 72.9003 61.4919 73.0767C60.6625 73.5471 59.5369 73.9 58.6483 74.3705V74.3117C58.4113 74.4293 58.1151 74.3705 58.1743 74.6057C57.9966 74.7233 57.8189 74.8409 57.6412 74.9586C57.5819 74.9586 57.5819 74.9586 57.5227 74.9586C57.5227 74.9586 57.4634 74.8997 57.4042 74.8997C57.2857 74.8997 57.2857 74.8998 57.2265 74.9586C56.4563 75.0174 55.4492 75.3702 55.153 75.6055C54.8568 75.429 53.4942 75.7231 53.2572 75.8407C53.3757 76.0171 53.7312 75.8407 54.0274 75.8407C53.8497 75.8995 53.6719 75.9583 53.6127 76.0759C53.5534 76.0759 53.5534 76.0759 53.4942 76.0759C53.435 75.8995 53.2572 76.0759 53.198 76.0171H53.2572C53.198 75.7819 53.0203 75.6643 52.7241 75.7231C52.7241 75.8407 52.7241 75.8995 52.6648 76.0171C52.7833 76.0171 53.1388 75.8407 53.1388 76.0171C53.0795 76.0171 53.0795 76.0759 53.1388 76.0759C53.0203 76.1935 52.8425 76.1935 52.7241 76.2524C52.4871 76.2524 52.1909 76.2524 51.9539 76.2524C51.8947 76.1935 51.8354 76.1935 51.7169 76.1347C51.6577 76.1935 51.5392 76.1935 51.48 76.2524C51.1245 76.2524 50.7098 76.3112 50.4136 76.37C50.4136 76.2523 50.4136 76.1347 50.2951 76.1347C50.1174 76.37 49.7619 76.0759 49.3472 76.1935C48.9326 76.0759 49.5842 76.37 50.1766 76.4876C50.1174 76.5464 50.0582 76.6052 49.8804 76.664ZM41.5865 77.4873C40.7571 76.7228 39.0391 76.37 38.7429 75.7819C38.2689 75.7231 37.558 74.8409 36.9656 74.7233C37.2618 74.7233 37.0249 74.5469 36.9656 74.4293C36.8471 74.5469 36.7287 74.6057 36.6102 74.6057C36.6102 74.1352 36.1362 73.8412 35.7215 73.5472C36.0177 73.7236 36.2547 73.8412 36.6102 73.9C36.6102 73.7824 36.6102 73.6648 36.7287 73.6648C37.1433 74.0764 37.6173 74.4881 38.1505 74.8997C38.8614 75.5466 42.5344 77.1933 43.1861 77.4873C43.1861 77.4873 43.0676 77.7226 43.1268 77.7226C43.423 77.899 43.66 77.5461 43.7192 77.9578C42.7714 78.0754 42.4159 77.4285 41.5865 77.4873ZM68.8972 63.8437V63.9025C68.8379 63.9025 68.8972 63.8437 68.8972 63.8437ZM44.9633 36.6153C44.9041 36.6741 44.8448 36.6741 44.8448 36.6741C44.8448 36.6153 44.9041 36.6153 44.9633 36.6153ZM39.9277 38.1443C39.987 38.0855 39.987 38.0855 40.0462 38.0855C39.987 38.0855 39.9277 38.1443 39.9277 38.1443ZM49.4065 36.2036C49.288 36.2036 49.2288 36.2036 49.1695 36.1448C49.2288 36.1448 49.288 36.1448 49.3472 36.1448H49.4065C49.4065 36.1448 49.4065 36.1448 49.4065 36.2036ZM50.4729 36.3212C50.4136 36.2624 50.2359 36.2036 50.0582 36.2036C50.0582 36.1448 50.1174 36.086 50.1174 36.086C50.1766 36.086 50.2359 36.086 50.2951 36.086C50.2951 36.086 50.3544 36.086 50.3544 36.1448C50.3544 36.1448 50.3544 36.1448 50.3544 36.086C50.4136 36.086 50.4136 36.086 50.4729 36.086C50.5321 36.2036 50.5913 36.2624 50.4729 36.3212ZM52.4278 36.4977C52.1316 36.5565 51.9539 36.4388 51.6577 36.2624C51.8354 36.2624 52.0724 36.3212 52.2501 36.38C52.3094 36.38 52.3686 36.4388 52.4278 36.4977ZM73.5181 44.8485C73.3996 44.9073 73.3404 44.9073 73.2219 44.6721C72.274 42.6726 70.556 39.7909 68.0678 37.3798C65.6389 34.9098 62.3805 32.9103 59.4184 31.8518C59.5962 31.9106 59.8331 32.0282 59.7146 32.1458C57.108 31.1461 54.6198 30.558 52.2501 30.3227C45.852 29.323 39.1576 30.6756 34.0035 33.9689C34.0628 34.0865 34.0627 34.1453 33.885 34.2629C31.9893 35.4391 29.3234 37.4974 27.1906 40.2026C25.0579 42.9078 23.3991 46.3187 22.6882 49.3768C22.7475 49.2003 22.8067 48.9063 22.9252 49.0239C21.3849 55.0812 21.7996 60.2564 23.9323 64.7258C24.0508 64.6082 23.6361 64.0201 23.9916 64.0789C24.2285 64.7258 24.5247 65.4315 24.8802 66.0784C25.2949 67.0194 25.7688 68.2544 26.4205 68.5484C24.7617 65.3139 23.6361 61.609 23.5176 58.3157C23.7546 58.7862 23.6954 59.7859 24.0508 60.1976C24.1693 57.9628 23.6361 54.9636 24.4063 52.8465C24.2285 53.9638 24.1101 55.4929 24.2285 57.0219C24.2285 58.1393 24.7617 61.2561 25.1172 61.5502C25.0579 61.4914 25.0579 61.1973 25.1172 61.1973C25.2949 61.5502 24.8802 61.7266 25.1764 61.7854C25.1764 61.6678 25.2357 61.6678 25.2949 61.6678C25.8873 62.9616 26.6575 64.9611 27.2499 65.9608C27.9608 67.2546 28.9087 68.4308 29.975 69.4893C29.975 69.5482 30.0343 69.5482 30.0343 69.607C30.1528 69.901 30.5675 70.2539 30.6859 70.4891C30.7452 70.6067 30.6267 70.7831 30.6859 70.9008C31.5746 72.5474 32.8779 74.194 34.4774 75.4878C35.4846 76.664 37.0841 77.899 39.0391 78.9576C40.9349 79.9573 43.1268 80.7806 45.141 81.2511C46.5629 81.6039 48.2809 81.6628 49.3472 81.898C50.7691 82.192 53.2572 81.7804 54.5013 81.5451C61.9658 80.4278 69.3711 75.3702 73.1034 68.0779C76.9541 60.7268 76.8356 51.7291 73.5181 44.8485Z" fill="#D9D9D9"/>
</svg>
